<svg width="34" height="35" viewBox="0 0 34 35" fill="none" xmlns="http://www.w3.org/2000/svg">
<path d="M27.625 5.67139H6.375C4.61459 5.67139 3.1875 7.10161 3.1875 8.86589V28.0329C3.1875 29.7972 4.61459 31.2274 6.375 31.2274H27.625C29.3854 31.2274 30.8125 29.7972 30.8125 28.0329V8.86589C30.8125 7.10161 29.3854 5.67139 27.625 5.67139Z" stroke="#F7A107" stroke-width="2" stroke-linejoin="round"/>
<path d="M19.6562 17.3846C20.5365 17.3846 21.25 16.6695 21.25 15.7873C21.25 14.9052 20.5365 14.1901 19.6562 14.1901C18.776 14.1901 18.0625 14.9052 18.0625 15.7873C18.0625 16.6695 18.776 17.3846 19.6562 17.3846Z" fill="#F7A107"/>
<path d="M24.9688 17.3846C25.849 17.3846 26.5625 16.6695 26.5625 15.7873C26.5625 14.9052 25.849 14.1901 24.9688 14.1901C24.0885 14.1901 23.375 14.9052 23.375 15.7873C23.375 16.6695 24.0885 17.3846 24.9688 17.3846Z" fill="#F7A107"/>
<path d="M19.6562 22.7087C20.5365 22.7087 21.25 21.9936 21.25 21.1115C21.25 20.2293 20.5365 19.5142 19.6562 19.5142C18.776 19.5142 18.0625 20.2293 18.0625 21.1115C18.0625 21.9936 18.776 22.7087 19.6562 22.7087Z" fill="#F7A107"/>
<path d="M24.9688 22.7087C25.849 22.7087 26.5625 21.9936 26.5625 21.1115C26.5625 20.2293 25.849 19.5142 24.9688 19.5142C24.0885 19.5142 23.375 20.2293 23.375 21.1115C23.375 21.9936 24.0885 22.7087 24.9688 22.7087Z" fill="#F7A107"/>
<path d="M9.03125 22.7087C9.91145 22.7087 10.625 21.9936 10.625 21.1115C10.625 20.2293 9.91145 19.5142 9.03125 19.5142C8.15105 19.5142 7.4375 20.2293 7.4375 21.1115C7.4375 21.9936 8.15105 22.7087 9.03125 22.7087Z" fill="#F7A107"/>
<path d="M14.3438 22.7087C15.224 22.7087 15.9375 21.9936 15.9375 21.1115C15.9375 20.2293 15.224 19.5142 14.3438 19.5142C13.4635 19.5142 12.75 20.2293 12.75 21.1115C12.75 21.9936 13.4635 22.7087 14.3438 22.7087Z" fill="#F7A107"/>
<path d="M9.03125 28.0329C9.91145 28.0329 10.625 27.3178 10.625 26.4356C10.625 25.5535 9.91145 24.8384 9.03125 24.8384C8.15105 24.8384 7.4375 25.5535 7.4375 26.4356C7.4375 27.3178 8.15105 28.0329 9.03125 28.0329Z" fill="#F7A107"/>
<path d="M14.3438 28.0329C15.224 28.0329 15.9375 27.3178 15.9375 26.4356C15.9375 25.5535 15.224 24.8384 14.3438 24.8384C13.4635 24.8384 12.75 25.5535 12.75 26.4356C12.75 27.3178 13.4635 28.0329 14.3438 28.0329Z" fill="#F7A107"/>
<path d="M19.6562 28.0329C20.5365 28.0329 21.25 27.3178 21.25 26.4356C21.25 25.5535 20.5365 24.8384 19.6562 24.8384C18.776 24.8384 18.0625 25.5535 18.0625 26.4356C18.0625 27.3178 18.776 28.0329 19.6562 28.0329Z" fill="#F7A107"/>
<path d="M8.5 3.54175V5.67141M25.5 3.54175V5.67141" stroke="#F7A107" stroke-width="2" stroke-linecap="round" stroke-linejoin="round"/>
<path d="M30.8125 10.9955H3.1875" stroke="#F7A107" stroke-width="2" stroke-linejoin="round"/>
</svg>
