<svg width="22" height="23" viewBox="0 0 22 23" fill="none" xmlns="http://www.w3.org/2000/svg">
<path d="M15.0103 3.2389C16.073 3.24218 17.0913 3.67955 17.8428 4.45548C18.5942 5.23142 19.0178 6.28288 19.021 7.38022V15.662C19.0178 16.7593 18.5942 17.8107 17.8428 18.5867C17.0913 19.3626 16.073 19.8 15.0103 19.8033H6.98973C5.927 19.8 4.9087 19.3626 4.15724 18.5867C3.40577 17.8107 2.9822 16.7593 2.97902 15.662V7.38022C2.9822 6.28288 3.40577 5.23142 4.15724 4.45548C4.9087 3.67955 5.927 3.24218 6.98973 3.2389H15.0103ZM15.0103 1.58264H6.98973C3.90156 1.58264 1.375 4.19148 1.375 7.38022V15.662C1.375 18.8507 3.90156 21.4595 6.98973 21.4595H15.0103C18.0984 21.4595 20.625 18.8507 20.625 15.662V7.38022C20.625 4.19148 18.0984 1.58264 15.0103 1.58264Z" fill="#FFCE77"/>
<path d="M16.2134 7.38018C15.9754 7.38018 15.7428 7.30732 15.545 7.17081C15.3471 7.03431 15.1929 6.84029 15.1019 6.61328C15.0108 6.38628 14.987 6.1365 15.0334 5.89551C15.0798 5.65453 15.1944 5.43317 15.3627 5.25943C15.5309 5.08569 15.7453 4.96737 15.9787 4.91944C16.2121 4.87151 16.454 4.89611 16.6738 4.99013C16.8937 5.08416 17.0816 5.24339 17.2138 5.44769C17.346 5.65198 17.4165 5.89217 17.4165 6.13787C17.4169 6.30112 17.386 6.46282 17.3256 6.6137C17.2653 6.76458 17.1767 6.90167 17.0649 7.0171C16.9531 7.13253 16.8203 7.22402 16.6742 7.28633C16.5281 7.34864 16.3715 7.38053 16.2134 7.38018ZM11 8.20809C11.6346 8.20809 12.2549 8.40239 12.7825 8.76642C13.3102 9.13046 13.7214 9.64787 13.9642 10.2532C14.2071 10.8586 14.2706 11.5247 14.1468 12.1674C14.023 12.81 13.7175 13.4003 13.2687 13.8637C12.82 14.327 12.2483 14.6425 11.6259 14.7704C11.0036 14.8982 10.3584 14.8326 9.77217 14.5818C9.1859 14.3311 8.6848 13.9064 8.33225 13.3616C7.9797 12.8168 7.79153 12.1763 7.79153 11.5211C7.79244 10.6427 8.13076 9.80057 8.73227 9.17947C9.33378 8.55837 10.1493 8.20903 11 8.20809ZM11 6.55183C10.0482 6.55183 9.11773 6.84327 8.32632 7.38929C7.53491 7.93532 6.91808 8.71141 6.55383 9.61941C6.18959 10.5274 6.09428 11.5266 6.27997 12.4905C6.46566 13.4544 6.92401 14.3399 7.59705 15.0348C8.27009 15.7298 9.1276 16.2031 10.0611 16.3948C10.9947 16.5865 11.9623 16.4881 12.8417 16.112C13.721 15.7359 14.4726 15.099 15.0014 14.2818C15.5303 13.4646 15.8125 12.5039 15.8125 11.5211C15.8125 10.2031 15.3055 8.93919 14.403 8.00728C13.5004 7.07537 12.2764 6.55183 11 6.55183Z" fill="#FFCE77"/>
</svg>
