<svg width="38" height="40" viewBox="0 0 38 40" fill="none" xmlns="http://www.w3.org/2000/svg">
<path d="M33.25 34.6561V18.7158M4.75 18.7158V34.6561M2.375 35.8822H35.625M21.375 35.8822V24.2336C21.375 23.7458 21.5627 23.278 21.8967 22.9331C22.2308 22.5881 22.6838 22.3943 23.1562 22.3943H27.9062C28.3787 22.3943 28.8317 22.5881 29.1658 22.9331C29.4998 23.278 29.6875 23.7458 29.6875 24.2336V35.8822M28.3864 4.00177H9.61355C7.99633 4.00177 6.5357 4.9214 5.90781 6.33609L2.69414 13.5812C1.61203 16.019 3.40887 18.781 6.19652 18.8691H6.34496C8.67543 18.8691 10.5643 16.9394 10.5643 14.8664C10.5643 16.9356 12.4539 18.8691 14.7844 18.8691C17.1148 18.8691 19 17.0774 19 14.8664C19 16.9356 20.8889 18.8691 23.2193 18.8691C25.5498 18.8691 27.4394 17.0774 27.4394 14.8664C27.4394 17.0774 29.3283 18.8691 31.6587 18.8691H31.8035C34.5911 18.7794 36.388 16.0175 35.3059 13.5812L32.0922 6.33609C31.4643 4.9214 30.0037 4.00177 28.3864 4.00177ZM10.0938 22.3943H16.0312C16.5037 22.3943 16.9567 22.5881 17.2908 22.9331C17.6248 23.278 17.8125 23.7458 17.8125 24.2336V30.9776H8.3125V24.2336C8.3125 23.7458 8.50017 23.278 8.83422 22.9331C9.16826 22.5881 9.62133 22.3943 10.0938 22.3943Z" stroke="#F7A107" stroke-width="2" stroke-linecap="round" stroke-linejoin="round"/>
</svg>
