<svg width="36" height="36" viewBox="0 0 36 36" fill="none" xmlns="http://www.w3.org/2000/svg">
<path d="M18 4.39402V1M18 34.9402V31.5462M31.6 17.9701H35M1 17.9701H4.4M18 5.75163C15.5792 5.75163 13.2127 6.46823 11.1998 7.81081C9.18696 9.1534 7.61813 11.0617 6.69171 13.2943C5.7653 15.5269 5.52291 17.9837 5.99519 20.3538C6.46747 22.724 7.63322 24.9011 9.34501 26.6099C11.0568 28.3186 13.2378 29.4823 15.6121 29.9538C17.9864 30.4253 20.4475 30.1833 22.684 29.2585C24.9206 28.3337 26.8322 26.7676 28.1772 24.7583C29.5221 22.749 30.24 20.3867 30.24 17.9701C30.24 14.7296 28.9504 11.6217 26.655 9.33034C24.3595 7.03893 21.2462 5.75163 18 5.75163Z" stroke="#F7A107" stroke-width="2" stroke-linecap="square" stroke-linejoin="round"/>
</svg>
