<svg width="22" height="23" viewBox="0 0 22 23" fill="none" xmlns="http://www.w3.org/2000/svg">
<path fill-rule="evenodd" clip-rule="evenodd" d="M17.8204 4.47099C16.9306 3.55171 15.8734 2.82325 14.7098 2.32754C13.5462 1.83184 12.2991 1.57867 11.0404 1.58263C5.75781 1.58263 1.4575 6.0008 1.45535 11.4323C1.45301 13.1619 1.89453 14.8611 2.73496 16.3572L1.375 21.4595L6.45605 20.0899C7.86252 20.8766 9.43694 21.2884 11.0365 21.2878H11.0404C16.3225 21.2878 20.6224 16.8692 20.625 11.4381C20.6282 10.1428 20.3819 8.85978 19.9004 7.66368C19.4189 6.46759 18.7119 5.38231 17.8204 4.47099ZM11.0404 19.6253H11.037C9.61098 19.6258 8.21094 19.2317 6.98242 18.4842L6.69152 18.3067L3.67641 19.1195L4.48121 16.0985L4.29172 15.7879C3.49438 14.4845 3.07194 12.974 3.07355 11.4323C3.07355 6.91877 6.64898 3.24643 11.0434 3.24643C13.1514 3.24254 15.1747 4.10341 16.668 5.6397C18.1614 7.17598 19.0027 9.26186 19.0068 11.4385C19.0051 15.9526 15.4314 19.6253 11.0404 19.6253ZM15.4099 13.4941C15.1705 13.3708 13.9919 12.7754 13.7736 12.6933C13.5554 12.6112 13.3942 12.5699 13.2348 12.8166C13.0754 13.0633 12.6161 13.6152 12.4764 13.7816C12.3368 13.948 12.1971 13.9662 11.9578 13.8429C11.7184 13.7195 10.9463 13.46 10.0315 12.6214C9.31949 11.9687 8.8391 11.163 8.69945 10.9168C8.5598 10.6705 8.68441 10.537 8.8043 10.4145C8.91215 10.3041 9.04363 10.127 9.16352 9.98327C9.2834 9.83952 9.32336 9.73659 9.40285 9.57243C9.48234 9.40826 9.44281 9.26451 9.38309 9.14161C9.32336 9.01871 8.84426 7.80702 8.64488 7.31409C8.45023 6.83403 8.25301 6.89925 8.10605 6.89171C7.96641 6.88461 7.80527 6.88283 7.64672 6.88283C7.52551 6.88609 7.40625 6.91512 7.29639 6.9681C7.18653 7.02107 7.08843 7.09687 7.0082 7.19075C6.78863 7.43744 6.16988 8.03374 6.16988 9.2441C6.16988 10.4545 7.02926 11.6258 7.14785 11.7899C7.26645 11.9541 8.83652 14.44 11.2389 15.5062C11.685 15.7035 12.1408 15.8765 12.6045 16.0244C13.1781 16.2117 13.7002 16.1855 14.1127 16.122C14.5729 16.0515 15.5306 15.5266 15.7296 14.9516C15.9285 14.3766 15.9289 13.8841 15.8692 13.7816C15.8095 13.6791 15.6496 13.617 15.4099 13.4941Z" fill="#FFCE77"/>
</svg>
